# xmcd
#
# Track frame offsets: 
#        150
#        12327
#        23736
#        37325
#        45901
#        55439
#        70295
#        82083
#        92018
#        103402
#        115181
#        127027
#
# Disc length: 1851 seconds
#
# Revision: 2
# Processed by: cddbd v1.5.2PL0 Copyright (c) Steve Scherf et al.
# Submitted via: ExactAudioCopyFreeDBPlugin 1.0
#
DISCID=a707390c
DTITLE=The Drifters - Under the Boardwalk
DYEAR=1964
DGENRE=Soul
TTITLE0=Under the Boardwalk
TTITLE1=One Way Love
TTITLE2=On Broadway
TTITLE3=Didn't It
TTITLE4=I Feel Good All Over
TTITLE5=Vaya Con Dios
TTITLE6=Up on the Roof
TTITLE7=Rat Race
TTITLE8=In the Land of Make Believe
TTITLE9=If You Don't Come Back
TTITLE10=Let the Music Play
TTITLE11=I'll Take You Home
EXTD=
EXTT0=
EXTT1=
EXTT2=
EXTT3=
EXTT4=
EXTT5=
EXTT6=
EXTT7=
EXTT8=
EXTT9=
EXTT10=
EXTT11=
PLAYORDER=
